<?xml version="1.0" encoding="utf-8"?>
<!-- Generator: Adobe Illustrator 22.0.1, SVG Export Plug-In . SVG Version: 6.00 Build 0)  -->
<svg version="1.1" id="Layer_1" xmlns="http://www.w3.org/2000/svg" xmlns:xlink="http://www.w3.org/1999/xlink" x="0px" y="0px"
	 viewBox="0 0 48 48" style="enable-background:new 0 0 48 48;" xml:space="preserve">
<path d="M44.7,6.3c-0.5-1.4-1.6-2.5-3-3C41.2,3.1,40.6,3,40,3H8C7.3,3,6.6,3.2,6,3.4C4.8,3.9,3.9,4.8,3.4,6C3.2,6.6,3,7.3,3,8v32
	c0,0.6,0.1,1.2,0.3,1.7c0.5,1.4,1.6,2.5,3,3C6.8,44.9,7.4,45,8,45h32c0.7,0,1.4-0.2,2-0.4c1.2-0.5,2.1-1.4,2.6-2.6
	c0.3-0.6,0.4-1.3,0.4-2V8C45,7.4,44.9,6.8,44.7,6.3z M43,40c0,1.7-1.3,3-3,3H8c-1.7,0-3-1.3-3-3V8c0-1.7,1.3-3,3-3h32
	c1.7,0,3,1.3,3,3V40z"/>
<g>
	<path d="M6,3.4L3.4,6C3.9,4.8,4.8,3.9,6,3.4z"/>
	<polygon points="15.3,3 3,15.3 3,12.5 12.5,3 	"/>
	<polygon points="24.2,3 3,24.2 3,21.4 21.4,3 	"/>
	<polygon points="33.1,3 3,33.1 3,30.3 30.3,3 	"/>
	<path d="M41.7,3.3L40,5L5,40l-1.7,1.7C3.1,41.2,3,40.6,3,40v-0.9L39.1,3H40C40.6,3,41.2,3.1,41.7,3.3z"/>
	<path d="M45,8v0.9L8.9,45H8c-0.6,0-1.2-0.1-1.7-0.3L8,43L43,8l1.7-1.7C44.9,6.8,45,7.4,45,8z"/>
	<polygon points="45,14.9 45,17.7 17.7,45 14.9,45 	"/>
	<polygon points="45,23.8 45,26.6 26.6,45 23.8,45 	"/>
	<polygon points="45,32.7 45,35.5 35.5,45 32.7,45 	"/>
	<path d="M44.6,42c-0.5,1.2-1.4,2.1-2.6,2.6L44.6,42z"/>
</g>
</svg>
