<?xml version="1.0" encoding="utf-8"?>
<!-- Generator: Adobe Illustrator 22.0.1, SVG Export Plug-In . SVG Version: 6.00 Build 0)  -->
<svg version="1.1" id="Layer_1" xmlns="http://www.w3.org/2000/svg" xmlns:xlink="http://www.w3.org/1999/xlink" x="0px" y="0px"
	 viewBox="0 0 48 48" style="enable-background:new 0 0 48 48;" xml:space="preserve">
<g>
	<path d="M30.4,10.3c3.1,0,5.6,2.5,5.6,5.6c0,2.9-2.3,5.3-5.1,5.6V24c0,1-0.3,2.1-0.8,2.9c-0.5,0.9-1.3,1.6-2.2,2
		c-0.2,0.1-0.4,0.3-0.4,0.6v3c0,0.5,0.3,1,0.8,1.2l0.9,0.5v3.4H18.9v-3.4l0.9-0.5c0.2-0.1,0.4-0.3,0.6-0.5c0.1-0.2,0.2-0.5,0.2-0.7
		v-3c0-0.1,0-0.2-0.1-0.3c-0.1-0.1-0.1-0.2-0.3-0.2c-0.9-0.5-1.7-1.2-2.2-2c-0.5-0.9-0.8-1.9-0.8-2.9v-2.6c-2.9-0.2-5.1-2.6-5.1-5.6
		c0-3.1,2.5-5.6,5.6-5.6H30.4 M30.9,19.7c1.9-0.2,3.4-1.8,3.4-3.8s-1.5-3.6-3.4-3.8V19.7 M17.1,19.7V12c-1.9,0.2-3.4,1.8-3.4,3.8
		S15.2,19.5,17.1,19.7 M30.4,8.3H17.6c-4.2,0-7.6,3.4-7.6,7.6c0,3.3,2.1,6.1,5.1,7.2v1c0,1.4,0.4,2.8,1.1,4c0.6,0.9,1.4,1.7,2.3,2.3
		v1.9L18,32.5l-1.1,0.6v1.2v3.4v2h2h10.3h2v-2v-3.4V33L30,32.5l-0.6-0.3v-1.9c0.9-0.6,1.7-1.4,2.3-2.4c0.7-1.2,1.1-2.6,1.1-4v-1
		c3-1,5.1-3.9,5.1-7.2C38,11.7,34.6,8.3,30.4,8.3L30.4,8.3z"/>
</g>
<g>
	<path d="M24,4c11,0,20,9,20,20s-9,20-20,20S4,35,4,24S13,4,24,4 M24,2C11.9,2,2,11.9,2,24s9.9,22,22,22s22-9.9,22-22S36.1,2,24,2
		L24,2z"/>
</g>
</svg>
