<?xml version="1.0" encoding="utf-8"?>
<!-- Generator: Adobe Illustrator 22.0.1, SVG Export Plug-In . SVG Version: 6.00 Build 0)  -->
<svg version="1.1" id="Layer_1" xmlns="http://www.w3.org/2000/svg" xmlns:xlink="http://www.w3.org/1999/xlink" x="0px" y="0px"
	 viewBox="0 0 48 48" style="enable-background:new 0 0 48 48;" xml:space="preserve">
<g>
	<path d="M20,6.4v4.1c-4.5,1.3-8.1,4.9-9.4,9.4H6.4C8,13.3,13.3,8,20,6.4 M22,4.1C12.5,5,5,12.5,4.1,22h8.1c0.8-5,4.8-9,9.8-9.8V4.1
		L22,4.1z"/>
</g>
<g>
	<path d="M10.6,28c1.3,4.5,4.9,8.1,9.4,9.4v4.1C13.3,40,8,34.7,6.4,28H10.6 M12.2,26H4.1C5,35.5,12.5,43,22,43.9v-8.1
		C17,35,13,31,12.2,26L12.2,26z"/>
</g>
<g>
	<path d="M41.6,28C40,34.7,34.7,40,28,41.6v-4.1c4.5-1.3,8.1-4.9,9.4-9.4H41.6 M43.9,26h-8.1C35,31,31,35,26,35.8v8.1
		C35.5,43,43,35.5,43.9,26L43.9,26z"/>
</g>
<g>
	<path d="M28,6.4C34.7,8,40,13.3,41.6,20h-4.1c-1.3-4.5-4.9-8.1-9.4-9.4V6.4 M26,4.1v8.1c5,0.8,9,4.8,9.8,9.8h8.1
		C43,12.5,35.5,5,26,4.1L26,4.1z"/>
</g>
</svg>
