<?xml version="1.0" encoding="utf-8"?>
<!-- Generator: Adobe Illustrator 22.0.1, SVG Export Plug-In . SVG Version: 6.00 Build 0)  -->
<svg version="1.1" id="Layer_1" xmlns="http://www.w3.org/2000/svg" xmlns:xlink="http://www.w3.org/1999/xlink" x="0px" y="0px"
	 viewBox="0 0 48 48" style="enable-background:new 0 0 48 48;" xml:space="preserve">
<g>
	<path d="M24,12c6.6,0,12,5.4,12,12s-5.4,12-12,12s-12-5.4-12-12S17.4,12,24,12 M24,10c-7.7,0-14,6.3-14,14s6.3,14,14,14
		s14-6.3,14-14S31.7,10,24,10L24,10z"/>
</g>
<g>
	<path d="M24,4.6l2.3,4.8l1,2.1l1.9-1.3l4.4-3l-0.4,5.4l-0.2,2.3l2.3-0.2l5.4-0.4l-3,4.4l-1.3,1.9l2.1,1l4.8,2.3l-4.8,2.3l-2.1,1
		l1.3,1.9l3,4.4l-5.4-0.4l-2.3-0.2l0.2,2.3l0.4,5.4l-4.4-3l-1.9-1.3l-1,2.1L24,43.4l-2.3-4.8l-1-2.1l-1.9,1.3l-4.4,3l0.4-5.4
		l0.2-2.3l-2.3,0.2l-5.4,0.4l3-4.4l1.3-1.9l-2.1-1L4.6,24l4.8-2.3l2.1-1l-1.3-1.9l-3-4.4l5.4,0.4l2.3,0.2l-0.2-2.3l-0.4-5.4l4.4,3
		l1.9,1.3l1-2.1L24,4.6 M24,0l-4.1,8.5L12,3.2l0.7,9.5L3.2,12l5.3,7.9L0,24l8.5,4.1L3.2,36l9.5-0.7L12,44.8l7.9-5.3L24,48l4.1-8.5
		l7.9,5.3l-0.7-9.5l9.5,0.7l-5.3-7.9L48,24l-8.5-4.1l5.3-7.9l-9.5,0.7L36,3.2l-7.9,5.3L24,0L24,0z"/>
</g>
</svg>
